<svg t="1695784101929" class="icon" viewBox="0 0 1024 1024" version="1.1" xmlns="http://www.w3.org/2000/svg" p-id="19765" width="200" height="200"><path d="M602.1 844.7c-6.8 0-12.2-5.5-12.2-12.2V461.8c0-21.9-13.7-41.8-34.1-49.7l-80.6-31c-4.5-1.7-9.5-1.2-13.5 1.6s-6.3 7.1-6.3 12v437.9c0 6.8-5.5 12.2-12.2 12.2s-12.2-5.5-12.2-12.2v-438c0-12.9 6.3-24.9 16.9-32.2 10.6-7.3 24.1-8.9 36.1-4.3l80.6 31c29.8 11.5 49.8 40.6 49.8 72.5v370.8c-0.1 6.9-5.6 12.3-12.3 12.3z" fill="#6060BA" p-id="19766"></path><path d="M638.7 967H406.4l12.3-85.6h207.8z" fill="#ACB9F9" p-id="19767"></path><path d="M638.7 979.2H406.4c-3.5 0-6.9-1.5-9.2-4.2-2.3-2.7-3.4-6.2-2.9-9.7l12.2-85.6c0.9-6 6-10.5 12.1-10.5h207.9c6.1 0 11.2 4.5 12.1 10.5l12.2 85.6c0.5 3.5-0.5 7.1-2.9 9.7-2.2 2.7-5.6 4.2-9.2 4.2z m-218.2-24.4h204.1l-8.7-61.1H429.3l-8.8 61.1z" fill="#6060BA" p-id="19768"></path><path d="M522.6 337.8c-27 0-48.9-34.1-48.9-61.1v-23.1c0-21 17-38 38-38h21.7c21 0 38 17 38 38v23.1c0.1 27-21.8 61.1-48.8 61.1z" fill="#ACB9F9" p-id="19769"></path><path d="M522.6 350c-16.5 0-32.2-9-44.4-25.4-10.5-14.1-16.7-32-16.7-48v-23.1c0-27.7 22.5-50.3 50.3-50.3h21.7c27.7 0 50.3 22.5 50.3 50.3v23.1c0 15.9-6.3 33.9-16.7 48-12.3 16.4-28 25.4-44.5 25.4z m-10.9-122.2c-14.2 0-25.8 11.6-25.8 25.8v23.1c0 21.4 17.8 48.9 36.7 48.9s36.7-27.6 36.7-48.9v-23.1c0-14.2-11.6-25.8-25.8-25.8h-21.8zM665.1 286h-32.4c-6.8 0-12.2-5.5-12.2-12.2s5.5-12.2 12.2-12.2h32.4c6.8 0 12.2 5.5 12.2 12.2s-5.5 12.2-12.2 12.2zM617.7 231.1c-4.2 0-8.3-2.2-10.6-6.1-3.4-5.8-1.4-13.3 4.5-16.7l28.1-16.2c5.8-3.4 13.3-1.4 16.7 4.5 3.4 5.8 1.4 13.3-4.5 16.7l-28.1 16.2c-2 1.1-4.1 1.6-6.1 1.6zM577.2 191c-2.1 0-4.2-0.5-6.1-1.6-5.8-3.4-7.9-10.9-4.5-16.7l16.2-28.1c3.4-5.8 10.9-7.9 16.7-4.5s7.9 10.9 4.5 16.7l-16.2 28.1c-2.3 3.9-6.4 6.1-10.6 6.1zM522.1 176.5c-6.8 0-12.2-5.5-12.2-12.2v-32.4c0-6.8 5.5-12.2 12.2-12.2s12.2 5.5 12.2 12.2v32.4c0 6.7-5.5 12.2-12.2 12.2zM467.1 191.5c-4.2 0-8.3-2.2-10.6-6.1l-16.2-28.1c-3.4-5.8-1.4-13.3 4.5-16.7 5.8-3.4 13.3-1.4 16.7 4.5l16.2 28.1c3.4 5.8 1.4 13.3-4.5 16.7-1.9 1-4 1.6-6.1 1.6zM427 231.9c-2.1 0-4.2-0.5-6.1-1.6l-28.1-16.2c-5.8-3.4-7.9-10.9-4.5-16.7s10.9-7.9 16.7-4.5l28.1 16.2c5.8 3.4 7.9 10.9 4.5 16.7-2.2 3.9-6.4 6.1-10.6 6.1zM412.5 287h-8c-6.8 0-12.2-5.5-12.2-12.2s5.5-12.2 12.2-12.2h8c6.8 0 12.2 5.5 12.2 12.2s-5.4 12.2-12.2 12.2zM449.2 624.6c-4 0-8-2-10.3-5.6-3.6-5.7-2-13.2 3.7-16.9l152.8-97.8c5.7-3.6 13.2-2 16.9 3.7 3.6 5.7 2 13.2-3.7 16.9l-152.8 97.8c-2 1.3-4.3 1.9-6.6 1.9zM449.2 502.4c-4 0-8-2-10.3-5.7-3.6-5.7-1.9-13.3 3.8-16.9l120.6-76.4c5.7-3.6 13.3-1.9 16.9 3.8s1.9 13.3-3.8 16.9l-120.6 76.4c-2.1 1.3-4.3 1.9-6.6 1.9zM449.2 759.1c-4 0-8-2-10.3-5.6-3.6-5.7-2-13.2 3.7-16.9l152.8-97.8c5.7-3.6 13.2-2 16.9 3.7 3.6 5.7 2 13.2-3.7 16.9l-152.8 97.8c-2 1.3-4.3 1.9-6.6 1.9z" fill="#6060BA" p-id="19770"></path><path d="M675.4 539.1l-73.3 61.1v-85.6l73.3-61.1z" fill="#ACB9F9" p-id="19771"></path><path d="M602.1 612.4c-1.8 0-3.5-0.4-5.2-1.2-4.3-2-7-6.3-7-11.1v-85.6c0-3.6 1.6-7.1 4.4-9.4l73.4-61.1c3.6-3 8.7-3.7 13-1.7s7 6.3 7 11.1V539c0 3.6-1.6 7.1-4.4 9.4l-73.4 61.1c-2.3 2-5 2.9-7.8 2.9z m12.2-92.1v53.8l48.9-40.8v-53.8l-48.9 40.8z m61.1 18.8z" fill="#6060BA" p-id="19772"></path><path d="M443.1 502.4c-5.1 0-9.8-3.2-11.5-8.2l-122.3-346c-1.3-3.7-0.7-7.9 1.5-11.1 2.3-3.2 6-5.2 10-5.2h33.6c5.2 0 9.8 3.2 11.5 8.1l88.7 248.2c0.5 1.3 0.7 2.7 0.7 4.1v97.8c0 6-4.3 11-10.2 12.1-0.6 0.1-1.3 0.2-2 0.2z m-105-346.1l92.8 262.5v-24.4l-85-238.1h-7.8zM333.1 19.4c0 12.2-24.5 23.2-24.5 36.7s10.9 24.5 24.5 24.5c13.5 0 24.5-10.9 24.5-24.5s-24.5-24.5-24.5-36.7zM369.7 117.2h-73.4c-6.8 0-12.2-5.5-12.2-12.2s5.5-12.2 12.2-12.2h73.4c6.8 0 12.2 5.5 12.2 12.2s-5.4 12.2-12.2 12.2z" fill="#6060BA" p-id="19773"></path></svg>
